<mxfile host="drawio-plugin" agent="Mozilla/5.0 (X11; Linux x86_64) AppleWebKit/537.36 (KHTML, like Gecko) Chrome/122.0.0.0 Safari/537.36" modified="2025-10-04T18:44:36.017Z" version="22.1.22" etag="YY09TMKBL_LCtnie_Zt1" type="embed">
  <diagram name="Seite-1" id="tv3RCUC1lsHie5otSo7a">
    <mxGraphModel dx="872" dy="800" grid="1" gridSize="10" guides="1" tooltips="1" connect="1" arrows="1" fold="1" page="1" pageScale="1" pageWidth="827" pageHeight="1169" math="0" shadow="0">
      <root>
        <mxCell id="0" />
        <mxCell id="1" parent="0" />
        <mxCell id="LKBNffSOK_iH0aHdxePR-12" value="&amp;lt;&amp;lt;interface&amp;gt;&amp;gt;&lt;br&gt;&lt;b&gt;Authorizer&lt;/b&gt;&lt;div&gt;&lt;br/&gt;&lt;/div&gt;" style="swimlane;fontStyle=0;align=center;verticalAlign=top;childLayout=stackLayout;horizontal=1;startSize=40;horizontalStack=0;resizeParent=1;resizeParentMax=0;resizeLast=0;collapsible=0;marginBottom=0;html=1;whiteSpace=wrap;" parent="1" vertex="1">
          <mxGeometry x="160" y="390" width="350" height="168" as="geometry" />
        </mxCell>
        <mxCell id="LKBNffSOK_iH0aHdxePR-17" value="" style="line;strokeWidth=1;fillColor=none;align=left;verticalAlign=middle;spacingTop=-1;spacingLeft=3;spacingRight=3;rotatable=0;labelPosition=right;points=[];portConstraint=eastwest;" parent="LKBNffSOK_iH0aHdxePR-12" vertex="1">
          <mxGeometry y="40" width="350" height="8" as="geometry" />
        </mxCell>
        <mxCell id="LKBNffSOK_iH0aHdxePR-19" value="requireAccessReplics(Account)" style="text;html=1;strokeColor=none;fillColor=none;align=left;verticalAlign=middle;spacingLeft=4;spacingRight=4;overflow=hidden;rotatable=0;points=[[0,0.5],[1,0.5]];portConstraint=eastwest;whiteSpace=wrap;" parent="LKBNffSOK_iH0aHdxePR-12" vertex="1">
          <mxGeometry y="48" width="350" height="20" as="geometry" />
        </mxCell>
        <mxCell id="LKBNffSOK_iH0aHdxePR-20" value="requireCreateAccount(Account)" style="text;html=1;strokeColor=none;fillColor=none;align=left;verticalAlign=middle;spacingLeft=4;spacingRight=4;overflow=hidden;rotatable=0;points=[[0,0.5],[1,0.5]];portConstraint=eastwest;whiteSpace=wrap;" parent="LKBNffSOK_iH0aHdxePR-12" vertex="1">
          <mxGeometry y="68" width="350" height="20" as="geometry" />
        </mxCell>
        <mxCell id="LKBNffSOK_iH0aHdxePR-21" value="requireAccessAccountsFull(Account)" style="text;html=1;strokeColor=none;fillColor=none;align=left;verticalAlign=middle;spacingLeft=4;spacingRight=4;overflow=hidden;rotatable=0;points=[[0,0.5],[1,0.5]];portConstraint=eastwest;whiteSpace=wrap;" parent="LKBNffSOK_iH0aHdxePR-12" vertex="1">
          <mxGeometry y="88" width="350" height="20" as="geometry" />
        </mxCell>
        <mxCell id="LKBNffSOK_iH0aHdxePR-22" value="requireChangeServerConfig(Account)" style="text;html=1;strokeColor=none;fillColor=none;align=left;verticalAlign=middle;spacingLeft=4;spacingRight=4;overflow=hidden;rotatable=0;points=[[0,0.5],[1,0.5]];portConstraint=eastwest;whiteSpace=wrap;" parent="LKBNffSOK_iH0aHdxePR-12" vertex="1">
          <mxGeometry y="108" width="350" height="20" as="geometry" />
        </mxCell>
        <mxCell id="LKBNffSOK_iH0aHdxePR-23" value="requireReviewReports(Account)" style="text;html=1;strokeColor=none;fillColor=none;align=left;verticalAlign=middle;spacingLeft=4;spacingRight=4;overflow=hidden;rotatable=0;points=[[0,0.5],[1,0.5]];portConstraint=eastwest;whiteSpace=wrap;" parent="LKBNffSOK_iH0aHdxePR-12" vertex="1">
          <mxGeometry y="128" width="350" height="20" as="geometry" />
        </mxCell>
        <mxCell id="2" value="requireUpdateReplicState(Account, Replic, ReplicState)" style="text;html=1;strokeColor=none;fillColor=none;align=left;verticalAlign=middle;spacingLeft=4;spacingRight=4;overflow=hidden;rotatable=0;points=[[0,0.5],[1,0.5]];portConstraint=eastwest;whiteSpace=wrap;" vertex="1" parent="LKBNffSOK_iH0aHdxePR-12">
          <mxGeometry y="148" width="350" height="20" as="geometry" />
        </mxCell>
      </root>
    </mxGraphModel>
  </diagram>
</mxfile>
